<svg width="64" height="40" viewBox="0 0 64 40" fill="none" xmlns="http://www.w3.org/2000/svg">
<circle opacity="0.201403" cx="20" cy="20" r="20" fill="black"/>
<path d="M30.9795 24.1097C32.9215 24.1099 34.4961 25.6523 34.4961 27.5551C34.4961 29.4577 32.9215 31.0002 30.9795 31.0004C29.0374 31.0004 27.4629 29.4579 27.4629 27.5551C27.4629 25.6522 29.0373 24.1097 30.9795 24.1097ZM52.9365 24.1097C54.8786 24.1099 56.4531 25.6523 56.4531 27.5551C56.4531 29.4578 54.8785 31.0002 52.9365 31.0004C50.9944 31.0004 49.42 29.4579 49.4199 27.5551C49.4199 25.6522 50.9944 24.1097 52.9365 24.1097ZM37.9268 20.6908C37.9268 21.4071 38.5366 21.9837 39.2754 21.9496C39.9673 21.9176 40.5 21.3334 40.5 20.6547V19.2621H48.7559L62.2383 20.5746C63.1945 20.6677 63.915 21.4569 63.915 22.389C63.9148 25.2799 61.7892 27.6925 58.9893 28.2084C59.3865 24.6512 56.5308 21.5884 52.9365 21.5883C49.2905 21.5883 46.4327 24.7274 46.8975 28.3109H37.0186C37.4838 24.7228 34.6208 21.5884 30.9795 21.5883C27.3847 21.5883 24.5295 24.6512 24.9268 28.2084C22.7864 27.8111 21.0111 26.2966 20.3164 24.2777H21.459C22.19 24.2776 22.7789 23.6801 22.7441 22.9564C22.7116 22.2786 22.1154 21.7564 21.4229 21.7562H20C20.0003 21.6764 20.001 21.5926 20.001 21.5043C20.0011 20.231 21.0658 19.2621 22.3057 19.2621H37.9268V20.6908ZM37.4844 16.7416H26.5049L29.8623 13.0863C31.0802 11.7606 32.823 11.0004 34.6436 11.0004H35.7266L37.4844 16.7416ZM42.5908 11.0004C45.2358 11.0004 47.5804 12.5558 48.5625 14.9623L49.2891 16.7416H40.1699L38.4131 11.0004H42.5908Z" fill="#FFD473"/>
</svg>
