<svg width="64" height="40" viewBox="0 0 64 40" fill="none" xmlns="http://www.w3.org/2000/svg">
<circle opacity="0.201403" cx="20" cy="20" r="20" fill="black"/>
<path d="M31.0017 22.358C33.9189 22.3582 36.1823 24.9513 35.7644 27.8639C35.5232 29.5415 34.4015 30.9922 32.8015 31.6412C30.9651 32.3861 28.8646 31.9243 27.5017 30.4771C26.3171 29.2193 26.2669 27.8702 26.239 27.8639C25.8195 24.9404 28.096 22.358 31.0017 22.358ZM53.0017 22.358C56.459 22.3581 58.8003 25.9245 57.4118 29.1012C56.5453 31.0805 54.4622 32.2587 52.2995 31.941C50.1923 31.6317 48.5392 29.9535 48.239 27.8639C47.8206 24.9488 50.0864 22.358 53.0017 22.358ZM37.9626 17.7369C37.9626 18.4701 38.5731 19.0607 39.3132 19.026C40.0065 18.9933 40.5407 18.3956 40.5407 17.7008V16.275H48.8415L61.8972 16.9908C62.439 17.0206 62.9046 17.3878 63.0612 17.9078C63.331 18.8033 63.5065 19.3848 63.6237 19.7779H62.5769C61.8828 19.7779 61.2854 20.3115 61.2526 21.0055C61.2178 21.7465 61.8081 22.358 62.5407 22.358H63.986C63.8225 24.5827 62.4161 26.5506 60.3864 27.4078C60.5163 23.1964 57.1306 19.7781 53.0017 19.7779C48.6855 19.7779 45.2401 23.496 45.6442 27.8639H38.3591C38.7898 23.2089 34.8561 19.333 30.2282 19.818V16.275H37.9626V17.7369ZM27.6501 20.5826C25.0053 21.9353 23.3608 24.7747 23.6433 27.857C21.6154 27.7397 20.0017 26.0514 20.0017 23.9928C20.0017 23.4046 20.0018 22.8616 20.0017 22.358H21.4626C22.1744 22.3579 22.7517 21.7805 22.7517 21.068C22.7517 20.3554 22.1744 19.778 21.4626 19.7779H20.0007C19.9997 17.4788 19.9986 16.6166 20.0036 16.275H27.6501V20.5826ZM42.6355 8.0787C45.2863 8.07871 47.6353 9.67072 48.6198 12.1344L49.2507 13.7135C48.765 13.6868 49.9193 13.6949 40.2107 13.6949L38.5271 8.0787H42.6355ZM27.8816 13.6949H20.738C21.059 12.6673 21.5264 11.1694 22.2087 8.98398C22.377 8.44548 22.8754 8.0787 23.4392 8.0787H29.0046L27.8816 13.6949ZM37.5192 13.6949H30.5114L31.6335 8.0787H35.8357L37.5192 13.6949Z" fill="#26B5C0"/>
</svg>
