<svg width="64" height="40" viewBox="0 0 64 40" fill="none" xmlns="http://www.w3.org/2000/svg">
<circle opacity="0.201403" cx="20" cy="20" r="20" fill="black"/>
<path d="M30.9794 22.8353C32.9212 22.8355 34.4958 24.4391 34.496 26.4173C34.496 28.3958 32.9214 30.0002 30.9794 30.0003C29.0372 30.0003 27.4628 28.3959 27.4628 26.4173C27.463 24.439 29.0373 22.8353 30.9794 22.8353ZM52.9364 22.8353C54.8783 22.8354 56.4528 24.439 56.453 26.4173C56.453 28.3958 54.8784 30.0002 52.9364 30.0003C50.9942 30.0003 49.4198 28.3959 49.4198 26.4173C49.42 24.439 50.9944 22.8353 52.9364 22.8353ZM43.7928 12.3841C44.2953 11.8724 45.1099 11.8723 45.6122 12.3841L49.327 16.1693C53.7709 16.0542 59.0269 17.3112 63.2909 19.9222C63.6778 20.1591 63.9147 20.5855 63.9149 21.0453C63.9149 24.0514 61.7893 26.5606 58.9891 27.097C59.3863 23.3982 56.5307 20.2143 52.9364 20.2142C49.2902 20.2142 46.4324 23.4781 46.8973 27.2045H37.2284C38.922 23.7591 37.9979 25.6017 41.5301 18.682C43.21 18.6585 45.0009 18.2729 46.7772 17.2777L43.7928 14.2377C43.2904 13.7258 43.2904 12.896 43.7928 12.3841ZM36.1132 13.4496C36.7961 13.2496 37.5086 13.6514 37.705 14.347C38.0568 15.593 38.2927 16.4275 38.454 16.9984C38.6908 17.8368 38.6019 18.7352 38.2069 19.5091C38.2069 19.5091 37.271 21.3419 36.2577 23.3285C35.1874 21.4376 33.1984 20.2143 30.9794 20.2142C27.3846 20.2142 24.5285 23.3988 24.9266 27.099C23.0949 26.752 21.5124 25.5623 20.6483 23.8226C20.4279 23.3787 20.4734 22.8452 20.7655 22.4466L21.7206 21.1439L20.3964 19.849C19.6452 19.1145 20.0197 17.8242 21.035 17.6175C25.5576 16.697 27.8387 16.2324 27.9364 16.2152C28.2501 16.0697 29.0065 15.6241 29.0067 14.7093C29.0067 13.9753 29.5988 13.3818 30.3231 13.3988C31.0352 13.4155 31.591 14.061 31.579 14.7865C31.5687 15.3969 31.4374 15.9325 31.2313 16.3978C32.8365 16.6119 34.4081 16.9947 35.9305 17.5433L35.2313 15.0716C35.035 14.376 35.4303 13.6497 36.1132 13.4496Z" fill="#19B89D"/>
</svg>
